<svg width="35" height="35" viewBox="0 0 35 35" fill="none" xmlns="http://www.w3.org/2000/svg">
<path d="M18.5938 29.5312V22.9688H22.9688L17.5 16.4062L12.0312 22.9688H16.4062V29.5312H10.9375V29.4766C10.7537 29.4875 10.5787 29.5312 10.3906 29.5312C8.21502 29.5312 6.12852 28.667 4.59014 27.1286C3.05176 25.5902 2.1875 23.5037 2.1875 21.3281C2.1875 17.1194 5.37031 13.6894 9.45438 13.2191C9.81246 11.3472 10.8116 9.65863 12.28 8.44376C13.7484 7.22889 15.5942 6.56367 17.5 6.5625C19.4061 6.56355 21.2522 7.22869 22.721 8.44354C24.1897 9.65838 25.1893 11.347 25.5478 13.2191C29.6319 13.6894 32.8103 17.1194 32.8103 21.3281C32.8103 23.5037 31.9461 25.5902 30.4077 27.1286C28.8693 28.667 26.7828 29.5312 24.6072 29.5312C24.4234 29.5312 24.2462 29.4875 24.0603 29.4766V29.5312H18.5938Z" fill="#989898"/>
</svg>
