<svg width="26" height="26" viewBox="0 0 26 26" fill="none" xmlns="http://www.w3.org/2000/svg">
<path d="M12.9997 9.75C12.1377 9.75 11.3111 10.0924 10.7016 10.7019C10.0921 11.3114 9.74967 12.138 9.74967 13C9.74967 13.862 10.0921 14.6886 10.7016 15.2981C11.3111 15.9076 12.1377 16.25 12.9997 16.25C13.8616 16.25 14.6883 15.9076 15.2978 15.2981C15.9073 14.6886 16.2497 13.862 16.2497 13C16.2497 12.138 15.9073 11.3114 15.2978 10.7019C14.6883 10.0924 13.8616 9.75 12.9997 9.75ZM12.9997 18.4167C11.5631 18.4167 10.1853 17.846 9.16951 16.8302C8.15369 15.8143 7.58301 14.4366 7.58301 13C7.58301 11.5634 8.15369 10.1857 9.16951 9.16984C10.1853 8.15402 11.5631 7.58333 12.9997 7.58333C14.4363 7.58333 15.814 8.15402 16.8298 9.16984C17.8457 10.1857 18.4163 11.5634 18.4163 13C18.4163 14.4366 17.8457 15.8143 16.8298 16.8302C15.814 17.846 14.4363 18.4167 12.9997 18.4167ZM12.9997 4.875C7.58301 4.875 2.95717 8.24417 1.08301 13C2.95717 17.7558 7.58301 21.125 12.9997 21.125C18.4163 21.125 23.0422 17.7558 24.9163 13C23.0422 8.24417 18.4163 4.875 12.9997 4.875Z" fill="#989898"/>
</svg>
