<svg width="18" height="16" viewBox="0 0 18 16" fill="none" xmlns="http://www.w3.org/2000/svg">
<path d="M8.56846 4.66667C8.56846 3.95942 8.26753 3.28115 7.73187 2.78105C7.19622 2.28095 6.46971 2 5.71217 2H1.42773V12H6.42624C6.99439 12 7.53928 12.2107 7.94102 12.5858C8.34276 12.9609 8.56846 13.4696 8.56846 14M8.56846 4.66667V14M8.56846 4.66667C8.56846 3.95942 8.86939 3.28115 9.40505 2.78105C9.94071 2.28095 10.6672 2 11.4248 2H15.7092V12H10.7107C10.1425 12 9.59765 12.2107 9.1959 12.5858C8.79416 12.9609 8.56846 13.4696 8.56846 14" stroke="black" stroke-width="1.6" stroke-linecap="round" stroke-linejoin="round"/>
</svg>
