<svg width="22" height="21" viewBox="0 0 22 21" fill="none" xmlns="http://www.w3.org/2000/svg">
<path d="M21.0837 16.625C21.0837 17.0891 20.8905 17.5342 20.5467 17.8624C20.2029 18.1906 19.7366 18.375 19.2503 18.375H2.75033C2.2641 18.375 1.79778 18.1906 1.45396 17.8624C1.11015 17.5342 0.916992 17.0891 0.916992 16.625V7C0.916992 6.53587 1.11015 6.09075 1.45396 5.76256C1.79778 5.43437 2.2641 5.25 2.75033 5.25H6.41699L8.25032 2.625H13.7503L15.5837 5.25H19.2503C19.7366 5.25 20.2029 5.43437 20.5467 5.76256C20.8905 6.09075 21.0837 6.53587 21.0837 7V16.625Z" stroke="white" stroke-width="1.6" stroke-linecap="round" stroke-linejoin="round"/>
<path d="M11.0003 14.875C13.0254 14.875 14.667 13.308 14.667 11.375C14.667 9.442 13.0254 7.875 11.0003 7.875C8.97528 7.875 7.33366 9.442 7.33366 11.375C7.33366 13.308 8.97528 14.875 11.0003 14.875Z" stroke="white" stroke-width="1.6" stroke-linecap="round" stroke-linejoin="round"/>
</svg>
