<svg width="26" height="26" viewBox="0 0 26 26" fill="none" xmlns="http://www.w3.org/2000/svg">
<path d="M22.75 10.8334C22.75 18.4167 13 24.9167 13 24.9167C13 24.9167 3.25 18.4167 3.25 10.8334C3.25 8.24751 4.27723 5.76756 6.10571 3.93908C7.93419 2.1106 10.4141 1.08337 13 1.08337C15.5859 1.08337 18.0658 2.1106 19.8943 3.93908C21.7228 5.76756 22.75 8.24751 22.75 10.8334Z" stroke="#780001" stroke-width="2" stroke-linecap="round" stroke-linejoin="round"/>
<path d="M13 14.0834C14.7949 14.0834 16.25 12.6283 16.25 10.8334C16.25 9.03845 14.7949 7.58337 13 7.58337C11.2051 7.58337 9.75 9.03845 9.75 10.8334C9.75 12.6283 11.2051 14.0834 13 14.0834Z" stroke="#780001" stroke-width="2" stroke-linecap="round" stroke-linejoin="round"/>
</svg>
