<svg width="24" height="22" viewBox="0 0 24 22" fill="none" xmlns="http://www.w3.org/2000/svg">
<g clip-path="url(#clip0_1_200)">
<path d="M11.5929 13.75C13.1936 13.75 14.4912 12.5188 14.4912 11C14.4912 9.48124 13.1936 8.25002 11.5929 8.25002C9.99222 8.25002 8.69461 9.48124 8.69461 11C8.69461 12.5188 9.99222 13.75 11.5929 13.75Z" stroke="black" stroke-width="1.6" stroke-linecap="round" stroke-linejoin="round"/>
<path d="M18.742 13.75C18.6134 14.0265 18.5751 14.3332 18.6319 14.6306C18.6887 14.9279 18.8381 15.2023 19.0608 15.4184L19.1188 15.4734C19.2985 15.6436 19.441 15.8458 19.5382 16.0684C19.6354 16.2909 19.6855 16.5295 19.6855 16.7704C19.6855 17.0114 19.6354 17.2499 19.5382 17.4725C19.441 17.6951 19.2985 17.8973 19.1188 18.0675C18.9394 18.238 18.7263 18.3732 18.4917 18.4655C18.2571 18.5577 18.0057 18.6052 17.7518 18.6052C17.4979 18.6052 17.2464 18.5577 17.0119 18.4655C16.7773 18.3732 16.5642 18.238 16.3847 18.0675L16.3268 18.0125C16.0991 17.8012 15.8099 17.6594 15.4965 17.6055C15.1831 17.5516 14.8599 17.588 14.5685 17.71C14.2827 17.8262 14.039 18.0192 13.8674 18.2651C13.6957 18.511 13.6036 18.7992 13.6024 19.0942V19.25C13.6024 19.7362 13.3988 20.2026 13.0365 20.5464C12.6741 20.8902 12.1826 21.0834 11.6702 21.0834C11.1577 21.0834 10.6663 20.8902 10.3039 20.5464C9.94156 20.2026 9.73799 19.7362 9.73799 19.25V19.1675C9.73051 18.8641 9.62701 18.5698 9.44093 18.323C9.25485 18.0761 8.99481 17.8881 8.69461 17.7834C8.40322 17.6613 8.07998 17.6249 7.76658 17.6788C7.45319 17.7328 7.164 17.8745 6.93631 18.0859L6.87834 18.1409C6.69889 18.3113 6.48579 18.4465 6.25123 18.5388C6.01666 18.6311 5.76523 18.6785 5.51131 18.6785C5.25739 18.6785 5.00596 18.6311 4.7714 18.5388C4.53683 18.4465 4.32373 18.3113 4.14428 18.1409C3.96463 17.9706 3.82212 17.7684 3.72488 17.5458C3.62764 17.3233 3.5776 17.0847 3.5776 16.8438C3.5776 16.6028 3.62764 16.3643 3.72488 16.1417C3.82212 15.9191 3.96463 15.717 4.14428 15.5467L4.20225 15.4917C4.42497 15.2756 4.57438 15.0013 4.6312 14.7039C4.68803 14.4065 4.64966 14.0998 4.52106 13.8234C4.3986 13.5522 4.19525 13.321 3.93606 13.1581C3.67686 12.9953 3.37313 12.9079 3.06225 12.9067H2.89802C2.38557 12.9067 1.8941 12.7135 1.53175 12.3697C1.16939 12.0259 0.96582 11.5596 0.96582 11.0734C0.96582 10.5871 1.16939 10.1208 1.53175 9.77699C1.8941 9.43317 2.38557 9.24002 2.89802 9.24002H2.98497C3.30474 9.23292 3.61487 9.13471 3.87503 8.95815C4.1352 8.7816 4.33336 8.53486 4.44377 8.25002C4.57238 7.97354 4.61074 7.66684 4.55391 7.36948C4.49709 7.07212 4.34768 6.79773 4.12496 6.58169L4.067 6.52669C3.88735 6.35642 3.74483 6.15422 3.64759 5.93166C3.55036 5.7091 3.50031 5.47053 3.50031 5.2296C3.50031 4.98867 3.55036 4.75011 3.64759 4.52755C3.74483 4.30498 3.88735 4.10279 4.067 3.93252C4.24644 3.76206 4.45954 3.62684 4.69411 3.53458C4.92867 3.44232 5.1801 3.39483 5.43402 3.39483C5.68795 3.39483 5.93938 3.44232 6.17394 3.53458C6.40851 3.62684 6.6216 3.76206 6.80105 3.93252L6.85902 3.98752C7.08671 4.19885 7.3759 4.34061 7.68929 4.39452C8.00269 4.44844 8.32593 4.41204 8.61732 4.29002H8.69461C8.98035 4.17382 9.22404 3.98088 9.3957 3.73495C9.56735 3.48901 9.65946 3.20082 9.6607 2.90585V2.75002C9.6607 2.26379 9.86427 1.79747 10.2266 1.45366C10.589 1.10984 11.0805 0.916687 11.5929 0.916687C12.1054 0.916687 12.5968 1.10984 12.9592 1.45366C13.3215 1.79747 13.5251 2.26379 13.5251 2.75002V2.83252C13.5263 3.12749 13.6185 3.41568 13.7901 3.66161C13.9618 3.90755 14.2055 4.10049 14.4912 4.21669C14.7826 4.33871 15.1058 4.37511 15.4192 4.32119C15.7326 4.26727 16.0218 4.12551 16.2495 3.91419L16.3075 3.85919C16.4869 3.68873 16.7 3.55351 16.9346 3.46124C17.1691 3.36898 17.4206 3.32149 17.6745 3.32149C17.9284 3.32149 18.1798 3.36898 18.4144 3.46124C18.649 3.55351 18.8621 3.68873 19.0415 3.85919C19.2212 4.02945 19.3637 4.23165 19.4609 4.45421C19.5582 4.67678 19.6082 4.91534 19.6082 5.15627C19.6082 5.3972 19.5582 5.63576 19.4609 5.85833C19.3637 6.08089 19.2212 6.28309 19.0415 6.45335L18.9836 6.50835C18.7608 6.72439 18.6114 6.99878 18.5546 7.29615C18.4978 7.59351 18.5361 7.90021 18.6647 8.17669V8.25002C18.7872 8.52114 18.9906 8.75237 19.2497 8.91524C19.5089 9.07811 19.8127 9.16551 20.1235 9.16669H20.2878C20.8002 9.16669 21.2917 9.35984 21.6541 9.70366C22.0164 10.0475 22.22 10.5138 22.22 11C22.22 11.4863 22.0164 11.9526 21.6541 12.2964C21.2917 12.6402 20.8002 12.8334 20.2878 12.8334H20.2008C19.89 12.8345 19.5862 12.9219 19.327 13.0848C19.0678 13.2477 18.8645 13.4789 18.742 13.75Z" stroke="black" stroke-width="1.6" stroke-linecap="round" stroke-linejoin="round"/>
</g>
<defs>
<clipPath id="clip0_1_200">
<rect width="23.1864" height="22" fill="white"/>
</clipPath>
</defs>
</svg>
