<svg width="37" height="37" viewBox="0 0 37 37" fill="none" xmlns="http://www.w3.org/2000/svg">
<path d="M4.72334 11.5778C6.00659 9.02412 7.97444 6.87738 10.4072 5.37735C12.8399 3.87732 15.6417 3.08306 18.4997 3.08325C22.6545 3.08325 26.1448 4.61104 28.8134 7.09929L24.3935 11.5208C22.7948 9.993 20.7628 9.21446 18.4997 9.21446C14.4836 9.21446 11.0843 11.9278 9.87405 15.5708C9.56572 16.4958 9.38997 17.4824 9.38997 18.4999C9.38997 19.5174 9.56572 20.5041 9.87405 21.4291C11.0858 25.0736 14.4836 27.7854 18.4997 27.7854C20.5732 27.7854 22.3384 27.2381 23.7198 26.3131C24.5206 25.7858 25.2061 25.1017 25.735 24.302C26.2639 23.5023 26.6252 22.6036 26.7969 21.6603H18.4997V15.6972H33.0191C33.201 16.7054 33.2997 17.7568 33.2997 18.8499C33.2997 23.5458 31.6193 27.4986 28.7024 30.1811C26.1525 32.5368 22.6622 33.9166 18.4997 33.9166C16.4749 33.9174 14.4698 33.5192 12.599 32.7447C10.7282 31.9702 9.02837 30.8347 7.59664 29.403C6.16491 27.9712 5.02936 26.2714 4.25488 24.4006C3.48041 22.5298 3.0822 20.5247 3.08301 18.4999C3.08301 16.0117 3.67809 13.6591 4.72334 11.5778Z" fill="#780001"/>
</svg>
