<svg width="38" height="38" viewBox="0 0 38 38" fill="none" xmlns="http://www.w3.org/2000/svg">
<path fill-rule="evenodd" clip-rule="evenodd" d="M9.20179 2.13623C7.32771 2.13623 5.53035 2.88052 4.20492 4.20544C2.87949 5.53036 2.13451 7.32744 2.13379 9.20152V28.0495C2.13379 29.9241 2.87845 31.7218 4.20396 33.0473C5.52947 34.3729 7.32724 35.1175 9.20179 35.1175H28.0498C29.9239 35.1168 31.7209 34.3718 33.0459 33.0464C34.3708 31.721 35.1151 29.9236 35.1151 28.0495V9.20152C35.1144 7.32791 34.3697 5.53124 33.0449 4.2064C31.7201 2.88156 29.9234 2.13695 28.0498 2.13623H9.20179ZM30.0828 9.21237C30.0828 9.75228 29.8683 10.2701 29.4865 10.6518C29.1048 11.0336 28.587 11.2481 28.0471 11.2481C27.5072 11.2481 26.9894 11.0336 26.6076 10.6518C26.2258 10.2701 26.0114 9.75228 26.0114 9.21237C26.0114 8.67247 26.2258 8.15468 26.6076 7.77291C26.9894 7.39114 27.5072 7.17666 28.0471 7.17666C28.587 7.17666 29.1048 7.39114 29.4865 7.77291C29.8683 8.15468 30.0828 8.67247 30.0828 9.21237ZM18.6285 12.9798C17.1312 12.9798 15.6952 13.5746 14.6364 14.6334C13.5776 15.6922 12.9828 17.1282 12.9828 18.6255C12.9828 20.1229 13.5776 21.5589 14.6364 22.6176C15.6952 23.6764 17.1312 24.2712 18.6285 24.2712C20.1258 24.2712 21.5618 23.6764 22.6206 22.6176C23.6794 21.5589 24.2742 20.1229 24.2742 18.6255C24.2742 17.1282 23.6794 15.6922 22.6206 14.6334C21.5618 13.5746 20.1258 12.9798 18.6285 12.9798ZM10.2658 18.6255C10.2658 16.4083 11.1466 14.2819 12.7144 12.7141C14.2822 11.1463 16.4086 10.2655 18.6258 10.2655C20.843 10.2655 22.9694 11.1463 24.5372 12.7141C26.105 14.2819 26.9858 16.4083 26.9858 18.6255C26.9858 20.8427 26.105 22.9691 24.5372 24.5369C22.9694 26.1047 20.843 26.9855 18.6258 26.9855C16.4086 26.9855 14.2822 26.1047 12.7144 24.5369C11.1466 22.9691 10.2658 20.8427 10.2658 18.6255Z" fill="#780001"/>
</svg>
